<mxfile host="Electron" agent="Mozilla/5.0 (Windows NT 10.0; Win64; x64) AppleWebKit/537.36 (KHTML, like Gecko) draw.io/25.0.2 Chrome/128.0.6613.186 Electron/32.2.5 Safari/537.36" version="25.0.2">
  <diagram name="Seite-1" id="FBL0D8DD6aoZtGdaJp8I">
    <mxGraphModel dx="2074" dy="1196" grid="1" gridSize="10" guides="1" tooltips="1" connect="1" arrows="1" fold="1" page="1" pageScale="1" pageWidth="1169" pageHeight="1654" math="0" shadow="0">
      <root>
        <mxCell id="0" />
        <mxCell id="1" parent="0" />
        <mxCell id="vEIgZDbBOw29q9aeV6xY-18" value="&lt;font style=&quot;font-size: 14px;&quot;&gt;Naemon&lt;/font&gt;" style="rounded=1;whiteSpace=wrap;html=1;fillColor=#0050ef;strokeColor=#001DBC;fontColor=#ffffff;" vertex="1" parent="1">
          <mxGeometry x="300" y="350" width="120" height="122" as="geometry" />
        </mxCell>
        <mxCell id="vEIgZDbBOw29q9aeV6xY-33" value="&lt;br style=&quot;font-size: 14px&quot;&gt;" style="html=1;shadow=0;dashed=0;shape=mxgraph.bootstrap.rrect;rSize=5;strokeColor=#D89F20;html=1;whiteSpace=wrap;fillColor=#FFBC26;fontColor=#ffffff;verticalAlign=bottom;align=left;spacing=20;spacingBottom=0;fontSize=14;" vertex="1" parent="1">
          <mxGeometry x="170" y="110" width="180" height="140" as="geometry" />
        </mxCell>
        <mxCell id="vEIgZDbBOw29q9aeV6xY-34" value="Windows Server" style="html=1;shadow=0;dashed=0;shape=mxgraph.bootstrap.topButton;rSize=5;perimeter=none;whiteSpace=wrap;fillColor=#F7B625;strokeColor=#D89F20;fontColor=#ffffff;resizeWidth=1;fontSize=18;align=left;spacing=20;" vertex="1" parent="vEIgZDbBOw29q9aeV6xY-33">
          <mxGeometry width="180" height="50" relative="1" as="geometry" />
        </mxCell>
        <mxCell id="vEIgZDbBOw29q9aeV6xY-35" value="&lt;font style=&quot;font-size: 14px;&quot;&gt;NSClient++&lt;/font&gt;" style="rounded=1;whiteSpace=wrap;html=1;fillColor=#e3c800;fontColor=#000000;strokeColor=#B09500;" vertex="1" parent="vEIgZDbBOw29q9aeV6xY-33">
          <mxGeometry x="30" y="60" width="120" height="60" as="geometry" />
        </mxCell>
        <mxCell id="vEIgZDbBOw29q9aeV6xY-36" value="&lt;br style=&quot;font-size: 14px&quot;&gt;" style="html=1;shadow=0;dashed=0;shape=mxgraph.bootstrap.rrect;rSize=5;strokeColor=#D89F20;html=1;whiteSpace=wrap;fillColor=#FFBC26;fontColor=#ffffff;verticalAlign=bottom;align=left;spacing=20;spacingBottom=0;fontSize=14;" vertex="1" parent="1">
          <mxGeometry x="380" y="110" width="180" height="140" as="geometry" />
        </mxCell>
        <mxCell id="vEIgZDbBOw29q9aeV6xY-37" value="Linux Server" style="html=1;shadow=0;dashed=0;shape=mxgraph.bootstrap.topButton;rSize=5;perimeter=none;whiteSpace=wrap;fillColor=#F7B625;strokeColor=#D89F20;fontColor=#ffffff;resizeWidth=1;fontSize=18;align=left;spacing=20;" vertex="1" parent="vEIgZDbBOw29q9aeV6xY-36">
          <mxGeometry width="180" height="50" relative="1" as="geometry" />
        </mxCell>
        <mxCell id="vEIgZDbBOw29q9aeV6xY-38" value="&lt;font style=&quot;font-size: 14px;&quot;&gt;NRPE&lt;/font&gt;" style="rounded=1;whiteSpace=wrap;html=1;fillColor=#e3c800;fontColor=#000000;strokeColor=#B09500;" vertex="1" parent="vEIgZDbBOw29q9aeV6xY-36">
          <mxGeometry x="30" y="60" width="120" height="60" as="geometry" />
        </mxCell>
        <mxCell id="vEIgZDbBOw29q9aeV6xY-39" value="&lt;br style=&quot;font-size: 14px&quot;&gt;" style="html=1;shadow=0;dashed=0;shape=mxgraph.bootstrap.rrect;rSize=5;strokeColor=#D89F20;html=1;whiteSpace=wrap;fillColor=#FFBC26;fontColor=#ffffff;verticalAlign=bottom;align=left;spacing=20;spacingBottom=0;fontSize=14;" vertex="1" parent="1">
          <mxGeometry x="600" y="110" width="180" height="140" as="geometry" />
        </mxCell>
        <mxCell id="vEIgZDbBOw29q9aeV6xY-40" value="Netware Server" style="html=1;shadow=0;dashed=0;shape=mxgraph.bootstrap.topButton;rSize=5;perimeter=none;whiteSpace=wrap;fillColor=#F7B625;strokeColor=#D89F20;fontColor=#ffffff;resizeWidth=1;fontSize=18;align=left;spacing=20;" vertex="1" parent="vEIgZDbBOw29q9aeV6xY-39">
          <mxGeometry width="180" height="50" relative="1" as="geometry" />
        </mxCell>
        <mxCell id="vEIgZDbBOw29q9aeV6xY-41" value="&lt;font style=&quot;font-size: 14px;&quot;&gt;MRTGEXT&lt;/font&gt;" style="rounded=1;whiteSpace=wrap;html=1;fillColor=#e3c800;fontColor=#000000;strokeColor=#B09500;" vertex="1" parent="vEIgZDbBOw29q9aeV6xY-39">
          <mxGeometry x="30" y="60" width="120" height="60" as="geometry" />
        </mxCell>
        <mxCell id="vEIgZDbBOw29q9aeV6xY-42" value="&lt;br style=&quot;font-size: 14px&quot;&gt;" style="html=1;shadow=0;dashed=0;shape=mxgraph.bootstrap.rrect;rSize=5;strokeColor=#D89F20;html=1;whiteSpace=wrap;fillColor=#FFBC26;fontColor=#ffffff;verticalAlign=bottom;align=left;spacing=20;spacingBottom=0;fontSize=14;" vertex="1" parent="1">
          <mxGeometry x="800" y="110" width="180" height="140" as="geometry" />
        </mxCell>
        <mxCell id="vEIgZDbBOw29q9aeV6xY-43" value="Cisco Switch" style="html=1;shadow=0;dashed=0;shape=mxgraph.bootstrap.topButton;rSize=5;perimeter=none;whiteSpace=wrap;fillColor=#F7B625;strokeColor=#D89F20;fontColor=#ffffff;resizeWidth=1;fontSize=18;align=left;spacing=20;" vertex="1" parent="vEIgZDbBOw29q9aeV6xY-42">
          <mxGeometry width="180" height="50" relative="1" as="geometry" />
        </mxCell>
        <mxCell id="vEIgZDbBOw29q9aeV6xY-44" value="&lt;font style=&quot;font-size: 14px;&quot;&gt;SNMP&lt;/font&gt;" style="rounded=1;whiteSpace=wrap;html=1;fillColor=#e3c800;fontColor=#000000;strokeColor=#B09500;" vertex="1" parent="vEIgZDbBOw29q9aeV6xY-42">
          <mxGeometry x="30" y="60" width="120" height="60" as="geometry" />
        </mxCell>
        <mxCell id="vEIgZDbBOw29q9aeV6xY-56" style="edgeStyle=orthogonalEdgeStyle;rounded=0;orthogonalLoop=1;jettySize=auto;html=1;curved=1;" edge="1" parent="1" source="vEIgZDbBOw29q9aeV6xY-18" target="vEIgZDbBOw29q9aeV6xY-33">
          <mxGeometry relative="1" as="geometry" />
        </mxCell>
        <mxCell id="vEIgZDbBOw29q9aeV6xY-57" style="edgeStyle=orthogonalEdgeStyle;rounded=0;orthogonalLoop=1;jettySize=auto;html=1;entryX=0.506;entryY=1.007;entryDx=0;entryDy=0;entryPerimeter=0;curved=1;exitX=0.5;exitY=0;exitDx=0;exitDy=0;" edge="1" parent="1" source="vEIgZDbBOw29q9aeV6xY-18" target="vEIgZDbBOw29q9aeV6xY-36">
          <mxGeometry relative="1" as="geometry" />
        </mxCell>
        <mxCell id="vEIgZDbBOw29q9aeV6xY-69" style="edgeStyle=orthogonalEdgeStyle;rounded=0;orthogonalLoop=1;jettySize=auto;html=1;entryX=1;entryY=0.75;entryDx=0;entryDy=0;exitX=0;exitY=0.75;exitDx=0;exitDy=0;" edge="1" parent="1" source="vEIgZDbBOw29q9aeV6xY-60" target="vEIgZDbBOw29q9aeV6xY-18">
          <mxGeometry relative="1" as="geometry" />
        </mxCell>
        <mxCell id="vEIgZDbBOw29q9aeV6xY-60" value="&lt;font style=&quot;font-size: 14px;&quot;&gt;Naemon&lt;/font&gt;" style="rounded=1;whiteSpace=wrap;html=1;fillColor=#0050ef;strokeColor=#001DBC;fontColor=#ffffff;" vertex="1" parent="1">
          <mxGeometry x="730" y="350" width="120" height="122" as="geometry" />
        </mxCell>
        <mxCell id="vEIgZDbBOw29q9aeV6xY-61" style="edgeStyle=orthogonalEdgeStyle;rounded=0;orthogonalLoop=1;jettySize=auto;html=1;entryX=0.494;entryY=1;entryDx=0;entryDy=0;entryPerimeter=0;curved=1;" edge="1" parent="1" source="vEIgZDbBOw29q9aeV6xY-60" target="vEIgZDbBOw29q9aeV6xY-39">
          <mxGeometry relative="1" as="geometry" />
        </mxCell>
        <mxCell id="vEIgZDbBOw29q9aeV6xY-62" style="edgeStyle=orthogonalEdgeStyle;rounded=0;orthogonalLoop=1;jettySize=auto;html=1;entryX=0.461;entryY=1.021;entryDx=0;entryDy=0;entryPerimeter=0;curved=1;" edge="1" parent="1" source="vEIgZDbBOw29q9aeV6xY-60" target="vEIgZDbBOw29q9aeV6xY-42">
          <mxGeometry relative="1" as="geometry" />
        </mxCell>
        <mxCell id="vEIgZDbBOw29q9aeV6xY-63" value="" style="shape=image;verticalLabelPosition=bottom;labelBackgroundColor=default;verticalAlign=top;aspect=fixed;imageAspect=0;image=data:image/svg+xml,PHN2ZyB4bWxucz0iaHR0cDovL3d3dy53My5vcmcvMjAwMC9zdmciIHZpZXdCb3g9IjAgMCA0NDggNTEyIj48cGF0aCBkPSJNMTQ0IDE0NGwwIDQ4IDE2MCAwIDAtNDhjMC00NC4yLTM1LjgtODAtODAtODBzLTgwIDM1LjgtODAgODB6TTgwIDE5MmwwLTQ4QzgwIDY0LjUgMTQ0LjUgMCAyMjQgMHMxNDQgNjQuNSAxNDQgMTQ0bDAgNDggMTYgMGMzNS4zIDAgNjQgMjguNyA2NCA2NGwwIDE5MmMwIDM1LjMtMjguNyA2NC02NCA2NEw2NCA1MTJjLTM1LjMgMC02NC0yOC43LTY0LTY0TDAgMjU2YzAtMzUuMyAyOC43LTY0IDY0LTY0bDE2IDB6Ii8+PC9zdmc+;" vertex="1" parent="1">
          <mxGeometry x="290" y="270" width="18" height="20.57" as="geometry" />
        </mxCell>
        <mxCell id="vEIgZDbBOw29q9aeV6xY-65" value="" style="shape=image;verticalLabelPosition=bottom;labelBackgroundColor=default;verticalAlign=top;aspect=fixed;imageAspect=0;image=data:image/svg+xml,PHN2ZyB4bWxucz0iaHR0cDovL3d3dy53My5vcmcvMjAwMC9zdmciIHZpZXdCb3g9IjAgMCA0NDggNTEyIj48cGF0aCBkPSJNMTQ0IDE0NGwwIDQ4IDE2MCAwIDAtNDhjMC00NC4yLTM1LjgtODAtODAtODBzLTgwIDM1LjgtODAgODB6TTgwIDE5MmwwLTQ4QzgwIDY0LjUgMTQ0LjUgMCAyMjQgMHMxNDQgNjQuNSAxNDQgMTQ0bDAgNDggMTYgMGMzNS4zIDAgNjQgMjguNyA2NCA2NGwwIDE5MmMwIDM1LjMtMjguNyA2NC02NCA2NEw2NCA1MTJjLTM1LjMgMC02NC0yOC43LTY0LTY0TDAgMjU2YzAtMzUuMyAyOC43LTY0IDY0LTY0bDE2IDB6Ii8+PC9zdmc+;" vertex="1" parent="1">
          <mxGeometry x="420" y="270" width="18" height="20.57" as="geometry" />
        </mxCell>
        <mxCell id="vEIgZDbBOw29q9aeV6xY-66" value="" style="shape=image;verticalLabelPosition=bottom;labelBackgroundColor=default;verticalAlign=top;aspect=fixed;imageAspect=0;image=data:image/svg+xml,PHN2ZyB4bWxucz0iaHR0cDovL3d3dy53My5vcmcvMjAwMC9zdmciIHZpZXdCb3g9IjAgMCA0NDggNTEyIj48cGF0aCBkPSJNMTQ0IDE0NGwwIDQ4IDE2MCAwIDAtNDhjMC00NC4yLTM1LjgtODAtODAtODBzLTgwIDM1LjgtODAgODB6TTgwIDE5MmwwLTQ4QzgwIDY0LjUgMTQ0LjUgMCAyMjQgMHMxNDQgNjQuNSAxNDQgMTQ0bDAgNDggMTYgMGMzNS4zIDAgNjQgMjguNyA2NCA2NGwwIDE5MmMwIDM1LjMtMjguNyA2NC02NCA2NEw2NCA1MTJjLTM1LjMgMC02NC0yOC43LTY0LTY0TDAgMjU2YzAtMzUuMyAyOC43LTY0IDY0LTY0bDE2IDB6Ii8+PC9zdmc+;" vertex="1" parent="1">
          <mxGeometry x="715" y="270" width="18" height="20.57" as="geometry" />
        </mxCell>
        <mxCell id="vEIgZDbBOw29q9aeV6xY-67" value="" style="shape=image;verticalLabelPosition=bottom;labelBackgroundColor=default;verticalAlign=top;aspect=fixed;imageAspect=0;image=data:image/svg+xml,PHN2ZyB4bWxucz0iaHR0cDovL3d3dy53My5vcmcvMjAwMC9zdmciIHZpZXdCb3g9IjAgMCA0NDggNTEyIj48cGF0aCBkPSJNMTQ0IDE0NGwwIDQ4IDE2MCAwIDAtNDhjMC00NC4yLTM1LjgtODAtODAtODBzLTgwIDM1LjgtODAgODB6TTgwIDE5MmwwLTQ4QzgwIDY0LjUgMTQ0LjUgMCAyMjQgMHMxNDQgNjQuNSAxNDQgMTQ0bDAgNDggMTYgMGMzNS4zIDAgNjQgMjguNyA2NCA2NGwwIDE5MmMwIDM1LjMtMjguNyA2NC02NCA2NEw2NCA1MTJjLTM1LjMgMC02NC0yOC43LTY0LTY0TDAgMjU2YzAtMzUuMyAyOC43LTY0IDY0LTY0bDE2IDB6Ii8+PC9zdmc+;" vertex="1" parent="1">
          <mxGeometry x="845" y="270" width="18" height="20.57" as="geometry" />
        </mxCell>
        <mxCell id="vEIgZDbBOw29q9aeV6xY-68" style="edgeStyle=orthogonalEdgeStyle;rounded=0;orthogonalLoop=1;jettySize=auto;html=1;entryX=0;entryY=0.25;entryDx=0;entryDy=0;curved=1;exitX=1;exitY=0.25;exitDx=0;exitDy=0;" edge="1" parent="1" source="vEIgZDbBOw29q9aeV6xY-18" target="vEIgZDbBOw29q9aeV6xY-60">
          <mxGeometry relative="1" as="geometry" />
        </mxCell>
        <mxCell id="vEIgZDbBOw29q9aeV6xY-70" value="Unsecured Network" style="edgeLabel;html=1;align=center;verticalAlign=middle;resizable=0;points=[];" vertex="1" connectable="0" parent="vEIgZDbBOw29q9aeV6xY-68">
          <mxGeometry x="-0.1123" relative="1" as="geometry">
            <mxPoint as="offset" />
          </mxGeometry>
        </mxCell>
        <mxCell id="vEIgZDbBOw29q9aeV6xY-71" value="" style="shape=image;verticalLabelPosition=bottom;labelBackgroundColor=default;verticalAlign=top;aspect=fixed;imageAspect=0;image=data:image/svg+xml,PHN2ZyB4bWxucz0iaHR0cDovL3d3dy53My5vcmcvMjAwMC9zdmciIHZpZXdCb3g9IjAgMCA0NDggNTEyIj48cGF0aCBkPSJNMTQ0IDE0NGwwIDQ4IDE2MCAwIDAtNDhjMC00NC4yLTM1LjgtODAtODAtODBzLTgwIDM1LjgtODAgODB6TTgwIDE5MmwwLTQ4QzgwIDY0LjUgMTQ0LjUgMCAyMjQgMHMxNDQgNjQuNSAxNDQgMTQ0bDAgNDggMTYgMGMzNS4zIDAgNjQgMjguNyA2NCA2NGwwIDE5MmMwIDM1LjMtMjguNyA2NC02NCA2NEw2NCA1MTJjLTM1LjMgMC02NC0yOC43LTY0LTY0TDAgMjU2YzAtMzUuMyAyOC43LTY0IDY0LTY0bDE2IDB6Ii8+PC9zdmc+;" vertex="1" parent="1">
          <mxGeometry x="430" y="350" width="18" height="20.57" as="geometry" />
        </mxCell>
        <mxCell id="vEIgZDbBOw29q9aeV6xY-72" value="" style="shape=image;verticalLabelPosition=bottom;labelBackgroundColor=default;verticalAlign=top;aspect=fixed;imageAspect=0;image=data:image/svg+xml,PHN2ZyB4bWxucz0iaHR0cDovL3d3dy53My5vcmcvMjAwMC9zdmciIHZpZXdCb3g9IjAgMCA0NDggNTEyIj48cGF0aCBkPSJNMTQ0IDE0NGwwIDQ4IDE2MCAwIDAtNDhjMC00NC4yLTM1LjgtODAtODAtODBzLTgwIDM1LjgtODAgODB6TTgwIDE5MmwwLTQ4QzgwIDY0LjUgMTQ0LjUgMCAyMjQgMHMxNDQgNjQuNSAxNDQgMTQ0bDAgNDggMTYgMGMzNS4zIDAgNjQgMjguNyA2NCA2NGwwIDE5MmMwIDM1LjMtMjguNyA2NC02NCA2NEw2NCA1MTJjLTM1LjMgMC02NC0yOC43LTY0LTY0TDAgMjU2YzAtMzUuMyAyOC43LTY0IDY0LTY0bDE2IDB6Ii8+PC9zdmc+;" vertex="1" parent="1">
          <mxGeometry x="697" y="451.43" width="18" height="20.57" as="geometry" />
        </mxCell>
      </root>
    </mxGraphModel>
  </diagram>
</mxfile>
